<svg xmlns="http://www.w3.org/2000/svg" xmlns:xlink="http://www.w3.org/1999/xlink" width="300" zoomAndPan="magnify" viewBox="0 0 224.87999 112.499997" height="150" preserveAspectRatio="xMidYMid meet" version="1.0"><defs><g/><clipPath id="b85b33ef9e"><path d="M 1.929688 28.472656 L 61.25 28.472656 L 61.25 87.792969 L 1.929688 87.792969 Z M 1.929688 28.472656 " clip-rule="nonzero"/></clipPath><clipPath id="ac052a9f14"><path d="M 31.589844 28.472656 C 15.210938 28.472656 1.929688 41.753906 1.929688 58.132812 C 1.929688 74.511719 15.210938 87.792969 31.589844 87.792969 C 47.972656 87.792969 61.25 74.511719 61.25 58.132812 C 61.25 41.753906 47.972656 28.472656 31.589844 28.472656 Z M 31.589844 28.472656 " clip-rule="nonzero"/></clipPath><clipPath id="0fa139129d"><path d="M 10.710938 34.324219 L 52.457031 34.324219 L 52.457031 82 L 10.710938 82 Z M 10.710938 34.324219 " clip-rule="nonzero"/></clipPath></defs><g clip-path="url(#b85b33ef9e)"><g clip-path="url(#ac052a9f14)"><path fill="#cde0d3" d="M 1.929688 28.472656 L 61.25 28.472656 L 61.25 87.792969 L 1.929688 87.792969 Z M 1.929688 28.472656 " fill-opacity="1" fill-rule="nonzero"/></g></g><g clip-path="url(#0fa139129d)"><path fill="#3a3a3a" d="M 29.730469 81.929688 C 26.261719 81.929688 22.953125 81.015625 20.054688 79.214844 C 11.988281 74.203125 8.519531 63.292969 12.148438 54.371094 C 14.589844 48.375 20.644531 42.125 28.15625 42.574219 C 32.730469 42.847656 37.074219 45.515625 40.074219 49.902344 C 43.042969 54.238281 44.007812 59.324219 42.664062 63.503906 C 41.226562 67.972656 36.761719 72.59375 31.007812 72.78125 C 26.964844 72.90625 23 70.878906 20.664062 67.480469 C 17.691406 63.152344 17.882812 57.121094 21.046875 52.46875 C 21.125 52.351562 21.226562 52.257812 21.34375 52.183594 C 21.460938 52.109375 21.589844 52.0625 21.730469 52.039062 C 21.867188 52.019531 22.003906 52.023438 22.140625 52.0625 C 22.273438 52.097656 22.398438 52.15625 22.507812 52.246094 L 24.492188 53.820312 C 24.695312 53.984375 24.820312 54.195312 24.859375 54.449219 C 24.902344 54.707031 24.847656 54.945312 24.707031 55.164062 C 22.664062 58.265625 22.511719 62.15625 24.402344 64.910156 C 25.851562 67.019531 28.382812 68.332031 30.863281 68.242188 C 34.480469 68.128906 37.417969 65 38.34375 62.113281 C 39.25 59.304688 38.476562 55.605469 36.328125 52.464844 C 34.160156 49.292969 31.003906 47.289062 27.890625 47.105469 C 22.25 46.773438 17.902344 52.285156 16.355469 56.082031 C 13.582031 62.890625 16.316406 71.539062 22.453125 75.351562 C 30.277344 80.214844 40.8125 75.746094 45.378906 68.695312 C 51.175781 59.734375 46.082031 48.621094 40.613281 43.589844 C 37.597656 40.820312 34.238281 39.25 30.625 38.929688 C 23.082031 38.257812 17.488281 43.410156 15.597656 45.4375 C 15.414062 45.636719 15.1875 45.746094 14.917969 45.761719 C 14.648438 45.78125 14.40625 45.703125 14.199219 45.535156 L 12.265625 43.953125 C 12.160156 43.867188 12.074219 43.757812 12.007812 43.636719 C 11.941406 43.511719 11.90625 43.378906 11.894531 43.238281 C 11.882812 43.101562 11.902344 42.964844 11.945312 42.832031 C 11.992188 42.699219 12.058594 42.582031 12.152344 42.476562 C 14.542969 39.859375 21.359375 33.558594 31.023438 34.421875 C 35.652344 34.832031 39.910156 36.796875 43.675781 40.261719 C 47.441406 43.726562 50.378906 48.710938 51.691406 53.925781 C 53.277344 60.214844 52.410156 66.175781 49.179688 71.167969 C 46.289062 75.632812 41.609375 79.164062 36.34375 80.855469 C 34.195312 81.558594 31.992188 81.914062 29.730469 81.929688 Z M 29.730469 81.929688 " fill-opacity="1" fill-rule="nonzero"/></g><g fill="#3a3a3a" fill-opacity="1"><g transform="translate(64.205739, 80.082978)"><g><path d="M 20.40625 0.625 C 15.539062 0.625 11.738281 -0.472656 9 -2.671875 C 6.257812 -4.867188 4.890625 -7.859375 4.890625 -11.640625 C 4.890625 -15.304688 6.15625 -18.222656 8.6875 -20.390625 C 11.21875 -22.566406 14.582031 -23.65625 18.78125 -23.65625 L 35.21875 -23.65625 L 35.21875 -25.140625 C 35.21875 -28.296875 34.234375 -30.765625 32.265625 -32.546875 C 30.304688 -34.328125 27.617188 -35.21875 24.203125 -35.21875 C 21.617188 -35.21875 19.367188 -34.632812 17.453125 -33.46875 C 15.535156 -32.3125 14.242188 -30.75 13.578125 -28.78125 L 6.984375 -28.78125 C 7.859375 -32.65625 9.832031 -35.703125 12.90625 -37.921875 C 15.988281 -40.148438 19.726562 -41.265625 24.125 -41.265625 C 27.644531 -41.265625 30.722656 -40.601562 33.359375 -39.28125 C 35.992188 -37.96875 38.046875 -36.132812 39.515625 -33.78125 C 40.992188 -31.425781 41.734375 -28.695312 41.734375 -25.59375 L 41.734375 0 L 36.390625 0 L 35.6875 -5.578125 C 32.007812 -1.441406 26.914062 0.625 20.40625 0.625 Z M 11.40625 -11.71875 C 11.40625 -9.75 12.234375 -8.171875 13.890625 -6.984375 C 15.546875 -5.796875 17.796875 -5.203125 20.640625 -5.203125 C 23.429688 -5.203125 25.910156 -5.742188 28.078125 -6.828125 C 30.253906 -7.910156 31.988281 -9.410156 33.28125 -11.328125 C 34.570312 -13.242188 35.242188 -15.441406 35.296875 -17.921875 L 19 -17.921875 C 16.78125 -17.921875 14.957031 -17.363281 13.53125 -16.25 C 12.113281 -15.132812 11.40625 -13.625 11.40625 -11.71875 Z M 11.40625 -11.71875 "/></g></g></g><g fill="#3a3a3a" fill-opacity="1"><g transform="translate(107.414481, 80.082978)"><g><path d="M 23.265625 1.015625 C 17.992188 1.015625 13.867188 -0.691406 10.890625 -4.109375 C 7.921875 -7.523438 6.4375 -12.101562 6.4375 -17.84375 L 6.4375 -40.265625 L 12.953125 -40.265625 L 12.953125 -18.46875 C 12.953125 -14.425781 13.945312 -11.21875 15.9375 -8.84375 C 17.925781 -6.46875 20.65625 -5.28125 24.125 -5.28125 C 27.90625 -5.28125 30.96875 -6.625 33.3125 -9.3125 C 35.664062 -12 36.84375 -15.539062 36.84375 -19.9375 L 36.84375 -40.265625 L 43.359375 -40.265625 L 43.359375 0 L 38.015625 0 L 37.3125 -5.890625 C 35.550781 -3.515625 33.441406 -1.769531 30.984375 -0.65625 C 28.535156 0.457031 25.960938 1.015625 23.265625 1.015625 Z M 23.265625 1.015625 "/></g></g></g><g fill="#3a3a3a" fill-opacity="1"><g transform="translate(153.105613, 80.082978)"><g><path d="M 7.21875 0 L 7.21875 -40.265625 L 12.5625 -40.265625 L 13.34375 -33.28125 C 14.789062 -35.707031 16.585938 -37.476562 18.734375 -38.59375 C 20.878906 -39.707031 23.660156 -40.265625 27.078125 -40.265625 L 30.71875 -40.265625 L 30.71875 -34.21875 L 26.765625 -34.21875 C 24.335938 -34.21875 22.140625 -33.722656 20.171875 -32.734375 C 18.203125 -31.753906 16.632812 -30.125 15.46875 -27.84375 C 14.3125 -25.570312 13.734375 -22.523438 13.734375 -18.703125 L 13.734375 0 Z M 7.21875 0 "/></g></g></g><g fill="#3a3a3a" fill-opacity="1"><g transform="translate(178.782381, 80.082978)"><g><path d="M 20.40625 0.625 C 15.539062 0.625 11.738281 -0.472656 9 -2.671875 C 6.257812 -4.867188 4.890625 -7.859375 4.890625 -11.640625 C 4.890625 -15.304688 6.15625 -18.222656 8.6875 -20.390625 C 11.21875 -22.566406 14.582031 -23.65625 18.78125 -23.65625 L 35.21875 -23.65625 L 35.21875 -25.140625 C 35.21875 -28.296875 34.234375 -30.765625 32.265625 -32.546875 C 30.304688 -34.328125 27.617188 -35.21875 24.203125 -35.21875 C 21.617188 -35.21875 19.367188 -34.632812 17.453125 -33.46875 C 15.535156 -32.3125 14.242188 -30.75 13.578125 -28.78125 L 6.984375 -28.78125 C 7.859375 -32.65625 9.832031 -35.703125 12.90625 -37.921875 C 15.988281 -40.148438 19.726562 -41.265625 24.125 -41.265625 C 27.644531 -41.265625 30.722656 -40.601562 33.359375 -39.28125 C 35.992188 -37.96875 38.046875 -36.132812 39.515625 -33.78125 C 40.992188 -31.425781 41.734375 -28.695312 41.734375 -25.59375 L 41.734375 0 L 36.390625 0 L 35.6875 -5.578125 C 32.007812 -1.441406 26.914062 0.625 20.40625 0.625 Z M 11.40625 -11.71875 C 11.40625 -9.75 12.234375 -8.171875 13.890625 -6.984375 C 15.546875 -5.796875 17.796875 -5.203125 20.640625 -5.203125 C 23.429688 -5.203125 25.910156 -5.742188 28.078125 -6.828125 C 30.253906 -7.910156 31.988281 -9.410156 33.28125 -11.328125 C 34.570312 -13.242188 35.242188 -15.441406 35.296875 -17.921875 L 19 -17.921875 C 16.78125 -17.921875 14.957031 -17.363281 13.53125 -16.25 C 12.113281 -15.132812 11.40625 -13.625 11.40625 -11.71875 Z M 11.40625 -11.71875 "/></g></g></g></svg>