<svg width="17" height="17" viewBox="0 0 17 17" fill="none" xmlns="http://www.w3.org/2000/svg">
<path d="M16.8315 8.37294C16.8289 10.4196 16.078 12.3946 14.7202 13.926C13.3625 15.4574 11.4916 16.4395 9.46006 16.6873C9.41482 16.6924 9.36902 16.6879 9.32566 16.674C9.2823 16.6601 9.24237 16.6372 9.20851 16.6068C9.17466 16.5763 9.14764 16.5391 9.12923 16.4974C9.11083 16.4558 9.10146 16.4107 9.10175 16.3652V10.3054H11.0342C11.1225 10.3056 11.2099 10.2876 11.291 10.2526C11.372 10.2176 11.445 10.1663 11.5055 10.1019C11.5659 10.0375 11.6124 9.96133 11.6421 9.87819C11.6719 9.79504 11.6842 9.70667 11.6783 9.61856C11.6641 9.45292 11.5877 9.29881 11.4645 9.18722C11.3412 9.07563 11.1803 9.01485 11.0141 9.01709H9.10175V7.08465C9.10175 6.74297 9.23748 6.41529 9.47909 6.17369C9.72069 5.93208 10.0484 5.79635 10.39 5.79635H11.6783C11.7666 5.79655 11.854 5.77858 11.9351 5.74358C12.0162 5.70857 12.0892 5.65727 12.1496 5.59286C12.21 5.52845 12.2565 5.45231 12.2863 5.36916C12.316 5.28602 12.3283 5.19764 12.3225 5.10953C12.3082 4.94361 12.2316 4.78927 12.108 4.67764C11.9844 4.56601 11.8231 4.50541 11.6566 4.50806H10.39C9.70669 4.50806 9.05133 4.77952 8.56813 5.26273C8.08492 5.74593 7.81346 6.40129 7.81346 7.08465V9.01709H5.88102C5.79272 9.01689 5.70532 9.03486 5.62425 9.06986C5.54318 9.10487 5.47017 9.15617 5.40976 9.22058C5.34936 9.28499 5.30284 9.36113 5.27309 9.44428C5.24335 9.52742 5.23102 9.6158 5.23688 9.70391C5.25112 9.86983 5.32777 10.0242 5.45135 10.1358C5.57493 10.2474 5.73625 10.308 5.90276 10.3054H7.81346V16.3668C7.81374 16.4122 7.80439 16.4572 7.78604 16.4988C7.76768 16.5404 7.74074 16.5776 7.70697 16.608C7.6732 16.6385 7.63338 16.6614 7.59012 16.6753C7.54685 16.6893 7.50113 16.6939 7.45596 16.6889C5.37002 16.4348 3.45546 15.4069 2.09125 13.8086C0.727032 12.2103 0.0125931 10.1581 0.0893399 8.05811C0.250377 3.71012 3.77225 0.175371 8.12346 0.00628268C9.24998 -0.0373534 10.3737 0.146667 11.4275 0.547337C12.4813 0.948007 13.4434 1.5571 14.2563 2.33817C15.0693 3.11924 15.7163 4.05626 16.1588 5.09317C16.6013 6.13007 16.8301 7.24557 16.8315 8.37294Z" fill="#D4D4D4"/>
</svg>
