<svg width="17" height="17" viewBox="0 0 17 17" fill="none" xmlns="http://www.w3.org/2000/svg">
<path d="M12.2388 0H4.50902C3.31355 0.00127881 2.1674 0.476746 1.32208 1.32208C0.476746 2.1674 0.00127881 3.31355 0 4.50902V12.2388C0.00127881 13.4343 0.476746 14.5804 1.32208 15.4257C2.1674 16.2711 3.31355 16.7465 4.50902 16.7478H12.2388C13.4343 16.7465 14.5804 16.2711 15.4257 15.4257C16.2711 14.5804 16.7465 13.4343 16.7478 12.2388V4.50902C16.7465 3.31355 16.2711 2.1674 15.4257 1.32208C14.5804 0.476746 13.4343 0.00127881 12.2388 0ZM8.3739 12.2388C7.6095 12.2388 6.86227 12.0121 6.22669 11.5874C5.59112 11.1628 5.09574 10.5591 4.80322 9.85293C4.5107 9.14671 4.43416 8.36962 4.58329 7.6199C4.73241 6.87019 5.10051 6.18153 5.64102 5.64102C6.18153 5.10051 6.87019 4.73241 7.6199 4.58329C8.36962 4.43416 9.14671 4.5107 9.85293 4.80322C10.5591 5.09574 11.1628 5.59112 11.5874 6.22669C12.0121 6.86227 12.2388 7.6095 12.2388 8.3739C12.2377 9.39861 11.8302 10.381 11.1056 11.1056C10.381 11.8302 9.39861 12.2377 8.3739 12.2388ZM13.205 4.50902C13.0139 4.50902 12.8271 4.45236 12.6682 4.34619C12.5093 4.24002 12.3855 4.08911 12.3123 3.91256C12.2392 3.73601 12.2201 3.54173 12.2573 3.3543C12.2946 3.16688 12.3867 2.99471 12.5218 2.85958C12.6569 2.72446 12.8291 2.63243 13.0165 2.59515C13.2039 2.55787 13.3982 2.577 13.5748 2.65013C13.7513 2.72327 13.9022 2.84711 14.0084 3.006C14.1146 3.1649 14.1712 3.3517 14.1712 3.54281C14.1712 3.79906 14.0694 4.04482 13.8882 4.22603C13.707 4.40723 13.4613 4.50902 13.205 4.50902ZM10.9505 8.3739C10.9505 8.8835 10.7994 9.38166 10.5163 9.80538C10.2331 10.2291 9.83073 10.5593 9.35992 10.7544C8.88911 10.9494 8.37104 11.0004 7.87124 10.901C7.37143 10.8016 6.91232 10.5562 6.55198 10.1958C6.19164 9.83548 5.94624 9.37638 5.84683 8.87657C5.74741 8.37676 5.79843 7.8587 5.99345 7.38789C6.18846 6.91708 6.51871 6.51467 6.94243 6.23155C7.36615 5.94843 7.8643 5.79732 8.3739 5.79732C9.05726 5.79732 9.71262 6.06878 10.1958 6.55198C10.679 7.03519 10.9505 7.69055 10.9505 8.3739Z" fill="#D4D4D4"/>
</svg>
