<svg width="17" height="17" viewBox="0 0 17 17" fill="none" xmlns="http://www.w3.org/2000/svg">
<path d="M16.9998 8.43065C16.9692 12.9791 13.2589 16.7023 8.71121 16.7474C8.00762 16.7548 7.30589 16.6737 6.62257 16.5058C6.58146 16.4956 6.54278 16.4773 6.50874 16.4521C6.4747 16.4268 6.44598 16.3951 6.42421 16.3588C6.40244 16.3224 6.38807 16.2822 6.3819 16.2402C6.37573 16.1983 6.37789 16.1556 6.38826 16.1145L7.08394 13.3326C7.76248 13.6727 8.51102 13.8497 9.27001 13.8495C12.2492 13.8495 14.6406 11.1562 14.4079 7.94271C14.3448 7.10865 14.1019 6.29811 13.696 5.56676C13.2901 4.83541 12.7307 4.20055 12.0562 3.70579C11.3818 3.21102 10.6083 2.86806 9.7888 2.70044C8.96932 2.53283 8.12326 2.54453 7.30873 2.73475C6.49419 2.92497 5.73046 3.28919 5.06997 3.80242C4.40948 4.31566 3.86787 4.96574 3.48233 5.70804C3.09679 6.45034 2.87644 7.26728 2.83641 8.10277C2.79639 8.93827 2.93764 9.77253 3.25046 10.5483C3.28296 10.6292 3.33155 10.7027 3.39329 10.7643C3.45504 10.8259 3.52864 10.8743 3.60965 10.9066C3.69066 10.9389 3.77738 10.9544 3.86457 10.9522C3.95175 10.95 4.03757 10.9301 4.11684 10.8937C4.26801 10.8204 4.38551 10.6922 4.44537 10.5353C4.50522 10.3783 4.50291 10.2044 4.43891 10.0491C4.19816 9.44533 4.09078 8.79668 4.12413 8.14757C4.15748 7.49845 4.33077 6.86422 4.63212 6.28833C4.93348 5.71244 5.35577 5.20851 5.87008 4.81107C6.38438 4.41363 6.97852 4.13208 7.6118 3.98571C8.24507 3.83934 8.90251 3.83161 9.53905 3.96305C10.1756 4.09449 10.7762 4.362 11.2997 4.74723C11.8232 5.13247 12.2572 5.62633 12.572 6.19497C12.8869 6.76362 13.075 7.3936 13.1236 8.04175C13.2959 10.5 11.5028 12.5612 9.27001 12.5612C8.61336 12.5609 7.96922 12.3817 7.40681 12.0427L8.60654 7.2422C8.64469 7.07764 8.61668 6.90468 8.52853 6.76058C8.44038 6.61647 8.29915 6.51277 8.13527 6.4718C7.97138 6.43083 7.79797 6.45587 7.65237 6.54154C7.50678 6.62721 7.40067 6.76664 7.35689 6.92979L5.19417 15.5815C5.18243 15.6286 5.16019 15.6724 5.12911 15.7097C5.09803 15.747 5.05892 15.7768 5.0147 15.7969C4.97049 15.817 4.92231 15.8268 4.87377 15.8256C4.82523 15.8244 4.77759 15.8122 4.73441 15.79C3.36836 15.0732 2.22688 13.993 1.43591 12.6685C0.644933 11.344 0.235215 9.82672 0.251958 8.28411C0.300269 3.7461 4.00975 0.0422585 8.54534 0.000389C9.65654 -0.0103216 10.7587 0.200242 11.7877 0.619808C12.8167 1.03937 13.7519 1.65955 14.5388 2.44419C15.3257 3.22884 15.9486 4.16225 16.3711 5.19004C16.7936 6.21783 17.0073 7.31944 16.9998 8.43065Z" fill="#D4D4D4"/>
</svg>
