<svg width="17" height="18" viewBox="0 0 17 18" fill="none" xmlns="http://www.w3.org/2000/svg">
<path d="M16.9155 5.15317V8.3739C16.9155 8.54474 16.8477 8.70858 16.7269 8.82938C16.6061 8.95018 16.4422 9.01805 16.2714 9.01805C14.9258 9.02117 13.5995 8.69762 12.4065 8.07518V11.2726C12.4065 12.8955 11.7618 14.452 10.6142 15.5996C9.46657 16.7472 7.91008 17.392 6.28712 17.392C4.66415 17.392 3.10766 16.7472 1.96005 15.5996C0.812444 14.452 0.167725 12.8955 0.167725 11.2726C0.167725 8.30144 2.33447 5.67493 5.20817 5.16283C5.30088 5.14636 5.39607 5.1504 5.48704 5.17469C5.57801 5.19897 5.66255 5.24291 5.73471 5.3034C5.80687 5.36389 5.86489 5.43946 5.90469 5.5248C5.94448 5.61014 5.96508 5.70316 5.96504 5.79732V9.23464C5.96508 9.35655 5.93053 9.47597 5.86539 9.57902C5.80025 9.68207 5.70721 9.76452 5.59707 9.81679C5.33671 9.94027 5.11424 10.1313 4.95289 10.3701C4.79153 10.6088 4.69719 10.8865 4.67971 11.1742C4.66224 11.4618 4.72226 11.7488 4.85352 12.0054C4.98478 12.2619 5.18247 12.4785 5.42597 12.6326C5.66947 12.7867 5.94986 12.8726 6.23789 12.8814C6.52592 12.8902 6.81103 12.8216 7.06349 12.6827C7.31595 12.5438 7.52651 12.3396 7.6732 12.0916C7.8199 11.8436 7.89735 11.5607 7.89748 11.2726V0.644146C7.89748 0.473308 7.96535 0.309467 8.08615 0.188666C8.20695 0.0678652 8.37079 0 8.54163 0H11.7624C11.9332 0 12.097 0.0678652 12.2178 0.188666C12.3386 0.309467 12.4065 0.473308 12.4065 0.644146C12.4076 1.66885 12.8151 2.65128 13.5397 3.37585C14.2643 4.10043 15.2467 4.50796 16.2714 4.50902C16.4422 4.50902 16.6061 4.57689 16.7269 4.69769C16.8477 4.81849 16.9155 4.98233 16.9155 5.15317Z" fill="#D4D4D4"/>
</svg>
